# xmcd
#
# Track frame offsets: 
#        150
#        15191
#        36008
#        59666
#        93613
#        110320
#        138416
#        154905
#        173290
#        194483
#        213268
#        228453
#
# Disc length: 3444 seconds
#
# Revision: 0
# Processed by: cddbd v1.5.2PL0 Copyright (c) Steve Scherf et al.
# Submitted via: ExactAudioCopy v1.3
#
DISCID=980d720c
DTITLE=Denise LaSalle - Denise LaSalle Greatest Hits
DYEAR=2013
DGENRE=Blues
TTITLE0=Wet Match
TTITLE1=Your Husband Is Cheating On Us
TTITLE2=Someone Else Is Steppin' In
TTITLE3=Why Am I Missing You
TTITLE4=Lady In The Street
TTITLE5=Down Home Blues
TTITLE6=Bump And Grind
TTITLE7=Give Me 'Yo Most Strongest Whiskey
TTITLE8=Don't Mess With My Man
TTITLE9=Drop That Zero
TTITLE10=My Tu-Tu
TTITLE11=Trappes...1990
EXTD=
EXTT0=
EXTT1=
EXTT2=
EXTT3=
EXTT4=
EXTT5=
EXTT6=
EXTT7=
EXTT8=
EXTT9=
EXTT10=
EXTT11=
PLAYORDER=
